<svg aria-hidden="true" style="width:0;height:0;position:absolute;overflow:hidden" xmlns="http://www.w3.org/2000/svg"><defs><symbol id="icon-fi-rr-angle-small-left1" viewBox="0 0 32 32"><path d="M14.133 16.947a1.334 1.334 0 0 1 0-1.894l6.12-6.107a1.334 1.334 0 1 0-1.88-1.894l-6.12 6.12a4.001 4.001 0 0 0 0 5.654l6.12 6.12a1.336 1.336 0 0 0 1.88-1.894l-6.12-6.107z"/></symbol><symbol id="go-to-first-page" viewBox="0 0 32 32"><path d="m12 8-8 8 8 8M20 8l-8 8 8 8" fill="none" stroke="#000" stroke-width="2"/></symbol><symbol id="icon-fi-rr-angle-small-left2" viewBox="0 0 32 32"><path d="M17.867 16.947a1.334 1.334 0 0 0 0-1.894l-6.12-6.107a1.334 1.334 0 1 1 1.88-1.894l6.12 6.12a4.001 4.001 0 0 1 0 5.654l-6.12 6.12a1.337 1.337 0 0 1-2.172-.434 1.331 1.331 0 0 1 .292-1.46l6.12-6.107z"/></symbol><symbol id="icon-heart1" viewBox="0 0 32 32"><path opacity=".5" fill-rule="evenodd" clip-rule="evenodd" d="M10.994 4.708c-1.833-2.143-4.89-2.72-7.185-.757-2.297 1.962-2.62 5.242-.817 7.563 1.5 1.929 6.037 5.998 7.524 7.315.166.147.25.221.347.25a.464.464 0 0 0 .262 0c.097-.029.18-.103.346-.25 1.488-1.317 6.025-5.386 7.524-7.315 1.804-2.32 1.52-5.622-.816-7.563-2.336-1.942-5.352-1.386-7.185.757Z" stroke="#F8F8F8" stroke-width="2" stroke-linecap="round" stroke-linejoin="round"/></symbol><symbol id="icon-Property-1Default" viewBox="0 0 32 32"><path stroke-width="2" stroke-linecap="round" stroke-linejoin="round" d="M28 13.333H4M28 8H4M28 18.667H4M28 24H4"/></symbol><symbol id="icon-Property-1Default1" viewBox="0 0 32 32"><path stroke-width="2.667" stroke-linecap="round" stroke-linejoin="round" d="M12 29.333a1.333 1.333 0 1 0 0-2.667 1.333 1.333 0 0 0 0 2.667zM26.667 29.333a1.333 1.333 0 1 0 0-2.667 1.333 1.333 0 0 0 0 2.667z"/><path stroke-width="2.4" stroke-linecap="round" stroke-linejoin="round" d="M1.333 1.333h5.333l3.573 17.853a2.671 2.671 0 0 0 2.666 2.147h12.96a2.667 2.667 0 0 0 2.666-2.147l2.133-11.187H7.997"/></symbol><symbol id="icon-Star-1" viewBox="0 0 32 32"><path d="M13.826 3.262c.684-2.106 3.663-2.106 4.348 0l1.932 5.945a2.285 2.285 0 0 0 2.174 1.579h6.251c2.214 0 3.135 2.833 1.344 4.135l-5.057 3.674a2.286 2.286 0 0 0-.83 2.556l1.931 5.945c.684 2.106-1.726 3.857-3.517 2.555l-5.057-3.674a2.286 2.286 0 0 0-2.687 0l-5.057 3.674c-1.791 1.302-4.202-.45-3.517-2.555l1.932-5.945a2.287 2.287 0 0 0-.83-2.556l-5.057-3.674c-1.791-1.302-.871-4.135 1.344-4.135h6.251c.99 0 1.868-.638 2.174-1.579l1.932-5.945z"/></symbol><symbol id="icon-x" viewBox="0 0 32 32"><path stroke-width="2.667" stroke-linecap="round" stroke-linejoin="round" d="M24 8 8 24M8 8l16 16"/></symbol><symbol id="icon-modal-close" viewBox="0 0 32 32"><path d="M32 3.223 28.777 0 16 12.777 3.223 0 0 3.223 12.777 16 0 28.777 3.223 32 16 19.223 28.777 32 32 28.777 19.223 16 32 3.223z"/></symbol><symbol id="youtube-icon" viewBox="0 0 32 32"><svg xmlns="http://www.w3.org/2000/svg" width="32" height="32" viewBox="0 0 32 32"><path fill="none" stroke="#f8f8f8" stroke-linejoin="round" stroke-linecap="round" stroke-width="1.684" d="M30.053 8.56a3.703 3.703 0 0 0-2.587-2.667c-2.293-.56-11.467-.56-11.467-.56s-9.173 0-11.467.613c-.628.178-1.197.518-1.652.986s-.777 1.048-.935 1.681a38.606 38.606 0 0 0-.613 7.053c-.015 2.383.19 4.762.613 7.107.175.613.504 1.171.958 1.619s1.014.772 1.629.941c2.293.613 11.467.613 11.467.613s9.173 0 11.467-.613c.628-.178 1.197-.518 1.652-.986s.777-1.048.935-1.681a38.66 38.66 0 0 0 .613-7 38.663 38.663 0 0 0-.613-7.107z"/><path fill="none" stroke="#f8f8f8" stroke-linejoin="round" stroke-linecap="round" stroke-width="1.684" d="m13 20.027 7.667-4.36L13 11.307v8.72z"/></svg></symbol><symbol id="icon-shopping-cart" viewBox="0 0 32 32"><path stroke-width="2.667" stroke-linecap="round" stroke-linejoin="round" d="M12 29.333a1.333 1.333 0 1 0 0-2.667 1.333 1.333 0 0 0 0 2.667zM26.667 29.333a1.333 1.333 0 1 0 0-2.667 1.333 1.333 0 0 0 0 2.667z"/><path stroke-width="2.4" stroke-linecap="round" stroke-linejoin="round" d="M1.333 1.333h5.333l3.573 17.853a2.671 2.671 0 0 0 2.666 2.147h12.96a2.667 2.667 0 0 0 2.666-2.147l2.133-11.187H7.997"/></symbol><symbol id="icon-hamburger" viewBox="0 0 32 32"><path d="M3.717 7.038c-.456.089-.693.417-.693.962 0 .616.277.924.885.985.182.019 5.755.027 12.384.018 11.943-.016 12.055-.017 12.235-.123.364-.214.528-.637.436-1.126a.866.866 0 0 0-.432-.632l-.004-.002c-.18-.106-.284-.107-12.395-.114-6.717-.004-12.305.01-12.416.032zm0 5.333c-.456.089-.693.418-.693.962 0 .616.277.924.885.986.182.018 5.755.026 12.384.017 11.943-.016 12.055-.017 12.235-.123a.86.86 0 0 0 .435-.628l.001-.005c.092-.49-.072-.912-.436-1.127-.18-.105-.284-.106-12.395-.114-6.717-.004-12.305.01-12.416.032zm0 5.334c-.456.089-.693.417-.693.962 0 .616.277.924.885.985.182.018 5.755.026 12.384.017 11.943-.016 12.055-.017 12.235-.122.364-.215.528-.637.436-1.127a.862.862 0 0 0-.432-.631l-.004-.002c-.18-.106-.284-.107-12.395-.115-6.717-.004-12.305.011-12.416.033zm0 5.333c-.456.089-.693.417-.693.962 0 .616.277.924.885.985.182.019 5.755.027 12.384.018 11.943-.016 12.055-.017 12.235-.123.364-.214.528-.637.436-1.126a.866.866 0 0 0-.432-.632l-.004-.002c-.18-.106-.284-.107-12.395-.114-6.717-.004-12.305.01-12.416.032z"/></symbol><symbol id="icon-x" viewBox="0 0 32 32"><path fill="none" stroke="#f8f8f8" style="stroke:var(--color1,#f8f8f8)" stroke-linejoin="round" stroke-linecap="round" stroke-width="3" d="M24 8 8 24M8 8l16 16"/></symbol><symbol id="icon-tt" viewBox="0 0 38 32"><path fill="#9bb537" style="fill:var(--color1,#9bb537)" d="M7.172 12.69h23.172v17.655H7.172V12.69z"/><path fill="#9bb537" style="fill:var(--color1,#9bb537)" d="M16.552 11.586c0 4.571-3.705 8.276-8.276 8.276S0 16.157 0 11.586 3.705 3.31 8.276 3.31s8.276 3.705 8.276 8.276z"/><path fill="#9bb537" style="fill:var(--color1,#9bb537)" d="M27.034 8.276c0 4.571-3.705 8.276-8.276 8.276s-8.276-3.705-8.276-8.276S14.187 0 18.758 0s8.276 3.705 8.276 8.276z"/><path fill="#9bb537" style="fill:var(--color1,#9bb537)" d="M37.517 11.586c0 4.571-3.705 8.276-8.276 8.276s-8.276-3.705-8.276-8.276S24.67 3.31 29.241 3.31s8.276 3.705 8.276 8.276z"/><path fill="#f8f8f8" style="fill:var(--color2,#f8f8f8)" d="M7.172 29.241h23.172v2.081c0 .374-.324.678-.724.678H7.896c-.4 0-.724-.303-.724-.678v-2.081zM14.345 10.463c0-.598.371-1.084.828-1.084s.828.485.828 1.084v5.005c0 .598-.371 1.084-.828 1.084s-.828-.485-.828-1.084v-5.005zM17.103 10.463c0-.598.618-1.084 1.379-1.084s1.379.485 1.379 1.084v5.005c0 .598-.618 1.084-1.379 1.084s-1.379-.485-1.379-1.084v-5.005zM20.966 10.463c0-.598.494-1.084 1.103-1.084s1.103.485 1.103 1.084v5.005c0 .598-.494 1.084-1.103 1.084s-1.103-.485-1.103-1.084v-5.005z"/><path fill="#050505" style="fill:var(--color3,#050505)" d="M28.184 3.131c.288-.03.581-.045.878-.045A8.333 8.333 0 0 1 37 8.832c-.288.03-.581.045-.878.045a8.333 8.333 0 0 1-7.938-5.746z"/></symbol><symbol id="fav-icon" viewBox="0 0 37 32"><path fill="#9bb537" style="fill:var(--color2,#9bb537)" d="M7.325 12.723h23.133v17.735H7.325V12.723z"/><path fill="#9bb537" style="fill:var(--color2,#9bb537)" d="M16.578 11.373a8.289 8.289 0 1 1-16.578 0 8.289 8.289 0 1 1 16.578 0z"/><path fill="#9bb537" style="fill:var(--color2,#9bb537)" d="M26.988 8.289a8.289 8.289 0 1 1-16.578 0 8.289 8.289 0 1 1 16.578 0z"/><path fill="#9bb537" style="fill:var(--color2,#9bb537)" d="M37.398 11.373a8.289 8.289 0 1 1-16.578 0 8.289 8.289 0 1 1 16.578 0z"/><path fill="#f8f8f8" style="fill:var(--color1,#f8f8f8)" d="M7.325 29.301h23.133v2.036c0 .366-.324.663-.723.663H8.048c-.399 0-.723-.297-.723-.663v-2.036zM14.265 10.36c0-.611.432-1.107.964-1.107s.964.495.964 1.107v5.112c0 .611-.432 1.107-.964 1.107s-.964-.495-.964-1.107V10.36zM17.349 10.36c0-.611.604-1.107 1.349-1.107s1.349.495 1.349 1.107v5.112c0 .611-.604 1.107-1.349 1.107s-1.349-.495-1.349-1.107V10.36zM21.205 10.36c0-.611.432-1.107.964-1.107s.964.495.964 1.107v5.112c0 .611-.432 1.107-.964 1.107s-.964-.495-.964-1.107V10.36z"/><path fill="#050505" style="fill:var(--color3,#050505)" d="M28.184 3.131c.289-.03.581-.045.878-.045A8.333 8.333 0 0 1 37 8.832c-.289.03-.581.045-.878.045a8.333 8.333 0 0 1-7.938-5.746z"/></symbol><symbol id="icon-youtube" viewBox="0 0 32 32"><path fill="none" stroke-linejoin="round" stroke-linecap="round" stroke-width="2" d="M30.053 8.56a3.703 3.703 0 0 0-2.587-2.667c-2.293-.56-11.467-.56-11.467-.56s-9.173 0-11.467.613c-.628.178-1.197.518-1.652.986s-.777 1.048-.935 1.681a38.606 38.606 0 0 0-.613 7.053c-.015 2.383.19 4.762.613 7.107.175.613.504 1.171.958 1.619s1.014.772 1.629.941c2.293.613 11.467.613 11.467.613s9.173 0 11.467-.613a3.708 3.708 0 0 0 2.587-2.667 38.66 38.66 0 0 0 .613-7 38.663 38.663 0 0 0-.613-7.107z"/><path fill="none" stroke-linejoin="round" stroke-linecap="round" stroke-width="2" d="m13 20.027 7.667-4.36L13 11.307v8.72z"/></symbol><symbol id="icon-heart1" viewBox="0 0 32 32"><path d="M23.6 2c-3.363 0-6.258 2.736-7.599 5.594C14.659 4.736 11.764 2 8.4 2 3.763 2 0 5.764 0 10.401c0 9.433 9.516 11.906 16.001 21.232C22.131 22.365 32 19.533 32 10.401 32 5.764 28.237 2 23.6 2z"/></symbol><symbol id="magnifying-glass" viewBox="0 0 18 18"><circle cx="8" cy="8" r="7" stroke="#000" stroke-width=".2" fill="none"/><path stroke="#000" stroke-width=".2" d="M11.5 11.5 16 16"/></symbol></defs></svg>