<svg aria-hidden="true" style="position: absolute; width: 0; height: 0; overflow: hidden;" version="1.1" xmlns="http://www.w3.org/2000/svg" xmlns:xlink="http://www.w3.org/1999/xlink">
  <defs>
    <symbol id="icon-fi-rr-angle-small-left1" viewBox="0 0 32 32">
    <path d="M14.133 16.947c-0.125-0.124-0.224-0.271-0.292-0.434s-0.103-0.337-0.103-0.513c0-0.176 0.035-0.35 0.103-0.513s0.167-0.31 0.292-0.434l6.12-6.107c0.125-0.124 0.224-0.271 0.292-0.434s0.103-0.337 0.103-0.513-0.035-0.35-0.103-0.513c-0.068-0.162-0.167-0.31-0.292-0.434-0.25-0.248-0.588-0.388-0.94-0.388s-0.69 0.139-0.94 0.388l-6.12 6.12c-0.749 0.75-1.17 1.767-1.17 2.827s0.421 2.077 1.17 2.827l6.12 6.12c0.248 0.246 0.583 0.385 0.933 0.387 0.175 0.001 0.349-0.033 0.512-0.099s0.31-0.164 0.435-0.288c0.125-0.124 0.224-0.271 0.292-0.434s0.103-0.337 0.103-0.513c0-0.176-0.035-0.35-0.103-0.513s-0.167-0.31-0.292-0.434l-6.12-6.107z"></path>
    </symbol>

    <symbol id="go-to-first-page" viewBox="0 0 32 32">
        <path d="M12,8 L4,16 L12,24" fill="none" stroke="black" stroke-width="2" />
        <path d="M20,8 L12,16 L20,24" fill="none" stroke="black" stroke-width="2" />
    </symbol>

    <symbol id="icon-fi-rr-angle-small-left2" viewBox="0 0 32 32">
    <path d="M17.867 16.947c0.125-0.124 0.224-0.271 0.292-0.434s0.103-0.337 0.103-0.513c0-0.176-0.035-0.35-0.103-0.513s-0.167-0.31-0.292-0.434l-6.12-6.107c-0.125-0.124-0.224-0.271-0.292-0.434s-0.103-0.337-0.103-0.513c0-0.176 0.035-0.35 0.103-0.513s0.167-0.31 0.292-0.434c0.25-0.248 0.588-0.388 0.94-0.388s0.69 0.139 0.94 0.388l6.12 6.12c0.749 0.75 1.17 1.767 1.17 2.827s-0.421 2.077-1.17 2.827l-6.12 6.12c-0.248 0.246-0.584 0.385-0.933 0.387-0.175 0.001-0.349-0.033-0.512-0.099s-0.31-0.164-0.435-0.288c-0.125-0.124-0.224-0.271-0.292-0.434s-0.103-0.337-0.103-0.513c0-0.176 0.035-0.35 0.103-0.513s0.167-0.31 0.292-0.434l6.12-6.107z"></path>
    </symbol>

    <symbol id="icon-heart1" viewBox="0 0 32 32">
      <path opacity="0.5" fill-rule="evenodd" clip-rule="evenodd" d="M10.9938 4.70783C9.16102 2.5652 6.10481 1.98884 3.80851 3.95085C1.51221 5.91285 1.18893 9.19323 2.99222 11.5137C4.49154 13.443 9.029 17.5121 10.5161 18.8291C10.6825 18.9764 10.7657 19.0501 10.8627 19.0791C10.9474 19.1043 11.0401 19.1043 11.1248 19.0791C11.2218 19.0501 11.305 18.9764 11.4714 18.8291C12.9585 17.5121 17.496 13.443 18.9953 11.5137C20.7986 9.19323 20.5148 5.89221 18.179 3.95085C15.8432 2.00948 12.8265 2.5652 10.9938 4.70783Z" stroke="#F8F8F8" stroke-width="2" stroke-linecap="round" stroke-linejoin="round"/>
    </symbol>

    <symbol id="icon-Property-1Default" viewBox="0 0 32 32">
    <path stroke-width="2" stroke-miterlimit="4" stroke-linecap="round" stroke-linejoin="round" d="M28 13.333h-24"></path>
    <path stroke-width="2" stroke-miterlimit="4" stroke-linecap="round" stroke-linejoin="round" d="M28 8h-24"></path>
    <path stroke-width="2" stroke-miterlimit="4" stroke-linecap="round" stroke-linejoin="round" d="M28 18.667h-24"></path>
    <path stroke-width="2" stroke-miterlimit="4" stroke-linecap="round" stroke-linejoin="round" d="M28 24h-24"></path>
    </symbol>

    <symbol id="icon-Property-1Default1" viewBox="0 0 32 32">
    <path stroke-width="2.6667" stroke-miterlimit="4" stroke-linecap="round" stroke-linejoin="round" d="M12 29.333c0.736 0 1.333-0.597 1.333-1.333s-0.597-1.333-1.333-1.333c-0.736 0-1.333 0.597-1.333 1.333s0.597 1.333 1.333 1.333z"></path>
    <path stroke-width="2.6667" stroke-miterlimit="4" stroke-linecap="round" stroke-linejoin="round" d="M26.667 29.333c0.736 0 1.333-0.597 1.333-1.333s-0.597-1.333-1.333-1.333c-0.736 0-1.333 0.597-1.333 1.333s0.597 1.333 1.333 1.333z"></path>
    <path stroke-width="2.4" stroke-miterlimit="4" stroke-linecap="round" stroke-linejoin="round" d="M1.333 1.333h5.333l3.573 17.853c0.122 0.614 0.456 1.165 0.943 1.558s1.098 0.601 1.723 0.589h12.96c0.626 0.012 1.236-0.197 1.723-0.589s0.821-0.944 0.943-1.558l2.133-11.187h-22.667"></path>
    </symbol>

    <symbol id="icon-Star-1" viewBox="0 0 32 32">
    <path d="M13.826 3.262c0.684-2.106 3.663-2.106 4.348 0l1.932 5.945c0.306 0.942 1.184 1.579 2.174 1.579h6.251c2.214 0 3.135 2.833 1.344 4.135l-5.057 3.674c-0.801 0.582-1.136 1.614-0.83 2.556l1.931 5.945c0.684 2.106-1.726 3.857-3.517 2.555l-5.057-3.674c-0.801-0.582-1.886-0.582-2.687 0l-5.057 3.674c-1.791 1.302-4.202-0.45-3.517-2.555l1.932-5.945c0.306-0.942-0.029-1.973-0.83-2.556l-5.057-3.674c-1.791-1.302-0.871-4.135 1.344-4.135h6.251c0.99 0 1.868-0.638 2.174-1.579l1.932-5.945z"></path>
    </symbol>

    <symbol id="icon-x" viewBox="0 0 32 32">
    <path stroke-width="2.6667" stroke-miterlimit="4" stroke-linecap="round" stroke-linejoin="round" d="M24 8l-16 16"></path>
    <path stroke-width="2.6667" stroke-miterlimit="4" stroke-linecap="round" stroke-linejoin="round" d="M8 8l16 16"></path>
    </symbol>

    <symbol id="icon-modal-close" viewBox="0 0 32 32">
    <path d="M32 3.223l-3.223-3.223-12.777 12.777-12.777-12.777-3.223 3.223 12.777 12.777-12.777 12.777 3.223 3.223 12.777-12.777 12.777 12.777 3.223-3.223-12.777-12.777 12.777-12.777z"></path>
    </symbol>

    <symbol id="youtube-icon" viewBox="0 0 32 32">
    <svg version="1.1" xmlns="http://www.w3.org/2000/svg" width="32" height="32" viewBox="0 0 32 32">
    <path fill="none" stroke="#f8f8f8" stroke-linejoin="round" stroke-linecap="round" stroke-miterlimit="4" stroke-width="1.6842" d="M30.053 8.56c-0.158-0.633-0.481-1.213-0.935-1.681s-1.024-0.808-1.652-0.986c-2.293-0.56-11.467-0.56-11.467-0.56s-9.173 0-11.467 0.613c-0.628 0.178-1.197 0.518-1.652 0.986s-0.777 1.048-0.935 1.681c-0.42 2.327-0.625 4.688-0.613 7.053-0.015 2.383 0.19 4.762 0.613 7.107 0.175 0.613 0.504 1.171 0.958 1.619s1.014 0.772 1.629 0.941c2.293 0.613 11.467 0.613 11.467 0.613s9.173 0 11.467-0.613c0.628-0.178 1.197-0.518 1.652-0.986s0.777-1.048 0.935-1.681c0.416-2.31 0.622-4.653 0.613-7 0.015-2.383-0.19-4.762-0.613-7.107z"></path>
    <path fill="none" stroke="#f8f8f8" stroke-linejoin="round" stroke-linecap="round" stroke-miterlimit="4" stroke-width="1.6842" d="M13 20.027l7.667-4.36-7.667-4.36v8.72z"></path>
    </svg>
    </symbol>

    <symbol id="icon-shopping-cart" viewBox="0 0 32 32">
    <path stroke-width="2.6667" stroke-miterlimit="4" stroke-linecap="round" stroke-linejoin="round" d="M12 29.333c0.736 0 1.333-0.597 1.333-1.333s-0.597-1.333-1.333-1.333c-0.736 0-1.333 0.597-1.333 1.333s0.597 1.333 1.333 1.333z"></path>
    <path stroke-width="2.6667" stroke-miterlimit="4" stroke-linecap="round" stroke-linejoin="round" d="M26.667 29.333c0.736 0 1.333-0.597 1.333-1.333s-0.597-1.333-1.333-1.333c-0.736 0-1.333 0.597-1.333 1.333s0.597 1.333 1.333 1.333z"></path>
    <path stroke-width="2.4" stroke-miterlimit="4" stroke-linecap="round" stroke-linejoin="round" d="M1.333 1.333h5.333l3.573 17.853c0.122 0.614 0.456 1.165 0.943 1.558s1.098 0.601 1.723 0.589h12.96c0.626 0.012 1.236-0.197 1.723-0.589s0.821-0.944 0.943-1.558l2.133-11.187h-22.667"></path>
    </symbol>

    <symbol id="icon-hamburger" viewBox="0 0 32 32">
    <path d="M3.717 7.038c-0.456 0.089-0.693 0.417-0.693 0.962 0 0.616 0.277 0.924 0.885 0.985 0.182 0.019 5.755 0.027 12.384 0.018 11.943-0.016 12.055-0.017 12.235-0.123 0.364-0.214 0.528-0.637 0.436-1.126-0.040-0.274-0.203-0.503-0.432-0.632l-0.004-0.002c-0.18-0.106-0.284-0.107-12.395-0.114-6.717-0.004-12.305 0.010-12.416 0.032zM3.717 12.371c-0.456 0.089-0.693 0.418-0.693 0.962 0 0.616 0.277 0.924 0.885 0.986 0.182 0.018 5.755 0.026 12.384 0.017 11.943-0.016 12.055-0.017 12.235-0.123 0.233-0.13 0.396-0.359 0.435-0.628l0.001-0.005c0.092-0.49-0.072-0.912-0.436-1.127-0.18-0.105-0.284-0.106-12.395-0.114-6.717-0.004-12.305 0.010-12.416 0.032zM3.717 17.705c-0.456 0.089-0.693 0.417-0.693 0.962 0 0.616 0.277 0.924 0.885 0.985 0.182 0.018 5.755 0.026 12.384 0.017 11.943-0.016 12.055-0.017 12.235-0.122 0.364-0.215 0.528-0.637 0.436-1.127-0.040-0.274-0.203-0.503-0.432-0.631l-0.004-0.002c-0.18-0.106-0.284-0.107-12.395-0.115-6.717-0.004-12.305 0.011-12.416 0.033zM3.717 23.038c-0.456 0.089-0.693 0.417-0.693 0.962 0 0.616 0.277 0.924 0.885 0.985 0.182 0.019 5.755 0.027 12.384 0.018 11.943-0.016 12.055-0.017 12.235-0.123 0.364-0.214 0.528-0.637 0.436-1.126-0.040-0.274-0.203-0.503-0.432-0.632l-0.004-0.002c-0.18-0.106-0.284-0.107-12.395-0.114-6.717-0.004-12.305 0.010-12.416 0.032z"></path>
    </symbol>

    <symbol id="icon-x" viewBox="0 0 32 32">
    <path fill="none" stroke="#f8f8f8" style="stroke: var(--color1, #f8f8f8)" stroke-linejoin="round" stroke-linecap="round" stroke-miterlimit="4" stroke-width="3" d="M24 8l-16 16"></path>
    <path fill="none" stroke="#f8f8f8" style="stroke: var(--color1, #f8f8f8)" stroke-linejoin="round" stroke-linecap="round" stroke-miterlimit="4" stroke-width="3" d="M8 8l16 16"></path>
    </symbol>
    <symbol id="icon-tt" viewBox="0 0 38 32">
<path fill="#9bb537" style="fill: var(--color1, #9bb537)" d="M7.172 12.69h23.172v17.655h-23.172v-17.655z"></path>
<path fill="#9bb537" style="fill: var(--color1, #9bb537)" d="M16.552 11.586c0 4.571-3.705 8.276-8.276 8.276s-8.276-3.705-8.276-8.276c0-4.571 3.705-8.276 8.276-8.276s8.276 3.705 8.276 8.276z"></path>
<path fill="#9bb537" style="fill: var(--color1, #9bb537)" d="M27.034 8.276c0 4.571-3.705 8.276-8.276 8.276s-8.276-3.705-8.276-8.276c0-4.571 3.705-8.276 8.276-8.276s8.276 3.705 8.276 8.276z"></path>
<path fill="#9bb537" style="fill: var(--color1, #9bb537)" d="M37.517 11.586c0 4.571-3.705 8.276-8.276 8.276s-8.276-3.705-8.276-8.276c0-4.571 3.705-8.276 8.276-8.276s8.276 3.705 8.276 8.276z"></path>
<path fill="#f8f8f8" style="fill: var(--color2, #f8f8f8)" d="M7.172 29.241h23.172v2.081c0 0.374-0.324 0.678-0.724 0.678h-21.724c-0.4 0-0.724-0.303-0.724-0.678v-2.081z"></path>
<path fill="#f8f8f8" style="fill: var(--color2, #f8f8f8)" d="M14.345 10.463c0-0.598 0.371-1.084 0.828-1.084s0.828 0.485 0.828 1.084v5.005c0 0.598-0.371 1.084-0.828 1.084s-0.828-0.485-0.828-1.084v-5.005z"></path>
<path fill="#f8f8f8" style="fill: var(--color2, #f8f8f8)" d="M17.103 10.463c0-0.598 0.618-1.084 1.379-1.084s1.379 0.485 1.379 1.084v5.005c0 0.598-0.618 1.084-1.379 1.084s-1.379-0.485-1.379-1.084v-5.005z"></path>
<path fill="#f8f8f8" style="fill: var(--color2, #f8f8f8)" d="M20.966 10.463c0-0.598 0.494-1.084 1.103-1.084s1.103 0.485 1.103 1.084v5.005c0 0.598-0.494 1.084-1.103 1.084s-1.103-0.485-1.103-1.084v-5.005z"></path>
<path fill="#050505" style="fill: var(--color3, #050505)" d="M28.184 3.131c0.288-0.030 0.581-0.045 0.878-0.045 3.714 0 6.861 2.413 7.938 5.746-0.288 0.030-0.581 0.045-0.878 0.045-3.714 0-6.861-2.413-7.938-5.746z"></path>
</symbol>
    <symbol id="fav-icon" viewBox="0 0 37 32">
    <path fill="#9bb537" style="fill: var(--color2, #9bb537)" d="M7.325 12.723h23.133v17.735h-23.133v-17.735z"></path>
    <path fill="#9bb537" style="fill: var(--color2, #9bb537)" d="M16.578 11.373c0 4.578-3.711 8.289-8.289 8.289s-8.289-3.711-8.289-8.289c0-4.578 3.711-8.289 8.289-8.289s8.289 3.711 8.289 8.289z"></path>
    <path fill="#9bb537" style="fill: var(--color2, #9bb537)" d="M26.988 8.289c0 4.578-3.711 8.289-8.289 8.289s-8.289-3.711-8.289-8.289c0-4.578 3.711-8.289 8.289-8.289s8.289 3.711 8.289 8.289z"></path>
    <path fill="#9bb537" style="fill: var(--color2, #9bb537)" d="M37.398 11.373c0 4.578-3.711 8.289-8.289 8.289s-8.289-3.711-8.289-8.289c0-4.578 3.711-8.289 8.289-8.289s8.289 3.711 8.289 8.289z"></path>
    <path fill="#f8f8f8" style="fill: var(--color1, #f8f8f8)" d="M7.325 29.301h23.133v2.036c0 0.366-0.324 0.663-0.723 0.663h-21.687c-0.399 0-0.723-0.297-0.723-0.663v-2.036z"></path>
    <path fill="#f8f8f8" style="fill: var(--color1, #f8f8f8)" d="M14.265 10.36c0-0.611 0.432-1.107 0.964-1.107s0.964 0.495 0.964 1.107v5.112c0 0.611-0.432 1.107-0.964 1.107s-0.964-0.495-0.964-1.107v-5.112z"></path>
    <path fill="#f8f8f8" style="fill: var(--color1, #f8f8f8)" d="M17.349 10.36c0-0.611 0.604-1.107 1.349-1.107s1.349 0.495 1.349 1.107v5.112c0 0.611-0.604 1.107-1.349 1.107s-1.349-0.495-1.349-1.107v-5.112z"></path>
    <path fill="#f8f8f8" style="fill: var(--color1, #f8f8f8)" d="M21.205 10.36c0-0.611 0.432-1.107 0.964-1.107s0.964 0.495 0.964 1.107v5.112c0 0.611-0.432 1.107-0.964 1.107s-0.964-0.495-0.964-1.107v-5.112z"></path>
    <path fill="#050505" style="fill: var(--color3, #050505)" d="M28.184 3.131c0.289-0.030 0.581-0.045 0.878-0.045 3.714 0 6.861 2.413 7.938 5.746-0.289 0.030-0.581 0.045-0.878 0.045-3.714 0-6.861-2.413-7.938-5.746z"></path>
    </symbol>

    <symbol id="icon-youtube" viewBox="0 0 32 32">
    <path fill="none" stroke-linejoin="round" stroke-linecap="round" stroke-miterlimit="4" stroke-width="2" d="M30.053 8.56c-0.158-0.633-0.481-1.213-0.935-1.681s-1.024-0.808-1.652-0.986c-2.293-0.56-11.467-0.56-11.467-0.56s-9.173 0-11.467 0.613c-0.628 0.178-1.197 0.518-1.652 0.986s-0.777 1.048-0.935 1.681c-0.42 2.327-0.625 4.688-0.613 7.053-0.015 2.383 0.19 4.762 0.613 7.107 0.175 0.613 0.504 1.171 0.958 1.619s1.014 0.772 1.629 0.941c2.293 0.613 11.467 0.613 11.467 0.613s9.173 0 11.467-0.613c0.628-0.177 1.197-0.518 1.652-0.986s0.777-1.048 0.935-1.681c0.416-2.31 0.622-4.653 0.613-7 0.015-2.383-0.19-4.762-0.613-7.107z"></path>
    <path fill="none" stroke-linejoin="round" stroke-linecap="round" stroke-miterlimit="4" stroke-width="2" d="M13 20.027l7.667-4.36-7.667-4.36v8.72z"></path>
    </symbol>

    <symbol id="icon-heart1" viewBox="0 0 32 32">
    <path d="M23.6 2c-3.363 0-6.258 2.736-7.599 5.594-1.342-2.858-4.237-5.594-7.601-5.594-4.637 0-8.4 3.764-8.4 8.401 0 9.433 9.516 11.906 16.001 21.232 6.13-9.268 15.999-12.1 15.999-21.232 0-4.637-3.763-8.401-8.4-8.401z"></path>
    </symbol>

    <symbol id="magnifying-glass" viewBox="0 0 18 18">
    <!-- Circle for the lens -->
    <circle cx="8" cy="8" r="7" stroke="black" stroke-width="0.2" fill="none" />

    <!-- Handle of the magnifying glass -->
    <line x1="11.5" y1="11.5" x2="16" y2="16" stroke="black" stroke-width="0.2"/>
    </symbol>
  </defs>
</svg>
